<svg width="441" height="65" viewBox="0 0 441 65" fill="none" xmlns="http://www.w3.org/2000/svg">
<path d="M74.9937 52.8022L89.0787 10.7383H102.463L116.484 52.8022H105.331L95.8982 19.0873H95.5158L86.0195 52.8022H74.9937ZM82.9603 45.3454V38.0798H109.792V45.3454H82.9603Z" fill="white"/>
<path d="M121.598 52.8022L111.465 19.1511H122.427L128.226 44.262H128.481L134.536 19.1511H144.861L134.727 52.8022H121.598Z" fill="white"/>
<path d="M154.169 53.6945C152.469 53.6945 150.855 53.3971 149.325 52.8022C147.795 52.2074 146.542 51.2514 145.565 49.9342C144.588 48.5746 144.099 46.7688 144.099 44.5169C144.099 42.4349 144.503 40.7566 145.31 39.482C146.117 38.1648 147.201 37.1238 148.56 36.359C149.92 35.5518 151.407 34.9569 153.022 34.5745C154.636 34.1496 156.229 33.7885 157.802 33.491C160.011 33.0662 161.668 32.7262 162.773 32.4713C163.877 32.2164 164.621 31.919 165.003 31.579C165.428 31.2391 165.641 30.7718 165.641 30.1769C165.641 28.9447 165.173 28.01 164.239 27.3727C163.346 26.7353 162.157 26.4167 160.67 26.4167C159.735 26.4167 158.8 26.5866 157.865 26.9265C156.931 27.2664 156.166 27.8825 155.571 28.7748C154.976 29.6246 154.7 30.8567 154.742 32.4713L145.565 31.834C145.48 29.1572 145.883 26.9478 146.776 25.2057C147.668 23.4212 148.879 22.0403 150.408 21.0631C151.981 20.0433 153.68 19.321 155.507 18.8961C157.377 18.4712 159.225 18.2588 161.052 18.2588C164.409 18.2588 167.17 18.8961 169.337 20.1708C171.504 21.403 173.098 23.2088 174.117 25.5881C175.179 27.925 175.711 30.7718 175.711 34.1284V40.1193C175.711 41.5214 175.711 42.9448 175.711 44.3894C175.711 45.7916 175.711 47.1937 175.711 48.5958C175.711 49.998 175.711 51.4001 175.711 52.8022H166.788C166.788 51.2726 166.788 49.7218 166.788 48.1497C166.788 46.5776 166.788 44.9205 166.788 43.1785H166.406C166.236 45.0905 165.598 46.8538 164.494 48.4684C163.431 50.0404 162.008 51.3151 160.223 52.2924C158.481 53.2271 156.463 53.6945 154.169 53.6945ZM158.439 46.174C159.161 46.174 159.926 46.0465 160.733 45.7916C161.583 45.4941 162.369 45.0268 163.091 44.3894C163.856 43.7521 164.472 42.8811 164.94 41.7764C165.407 40.6292 165.641 39.227 165.641 37.57V36.0404L167.362 35.8492C167.022 36.4015 166.448 36.8477 165.641 37.1876C164.876 37.5275 164.005 37.8037 163.028 38.0161C162.05 38.1861 161.052 38.3773 160.032 38.5897C159.055 38.7597 158.141 39.0146 157.292 39.3545C156.442 39.6519 155.741 40.0768 155.188 40.6292C154.679 41.139 154.424 41.8613 154.424 42.7961C154.424 43.9008 154.806 44.7506 155.571 45.3454C156.378 45.8978 157.334 46.174 158.439 46.174Z" fill="white"/>
<path d="M198.994 43.7929V38.3195H206.309C208.634 38.3195 210.377 37.8512 211.54 36.9148C212.702 35.946 213.283 34.3638 213.283 32.1679C213.283 30.2305 212.735 28.7612 211.637 27.7602C210.571 26.7268 208.908 26.2102 206.648 26.2102H198.994V20.8336H206.841C208.908 20.8336 210.765 21.0758 212.412 21.5602C214.091 22.0446 215.512 22.7711 216.674 23.7399C217.869 24.6763 218.773 25.8711 219.387 27.3242C220 28.745 220.307 30.4242 220.307 32.3617C220.307 34.8481 219.742 36.9471 218.612 38.6585C217.481 40.3377 215.802 41.6132 213.574 42.4851C211.378 43.3569 208.634 43.7929 205.34 43.7929H198.994ZM194.102 52.8022V20.8336H201.077V52.8022H194.102Z" fill="white"/>
<path d="M222.415 52.8022V20.8336H235.397C237.14 20.8336 238.723 20.9789 240.143 21.2696C241.564 21.5279 242.824 21.9154 243.922 22.4321C245.019 22.9487 245.94 23.5946 246.682 24.3695C247.457 25.1123 248.039 25.9841 248.426 26.9852C248.814 27.9539 249.007 29.0357 249.007 30.2305C249.007 31.3607 248.83 32.394 248.475 33.3304C248.119 34.2346 247.587 35.0257 246.876 35.7039C246.166 36.382 245.278 36.9471 244.212 37.3992C243.147 37.819 241.903 38.1096 240.483 38.271V38.9976C242.129 39.1591 243.437 39.5466 244.406 40.1601C245.407 40.7413 246.182 41.5325 246.731 42.5335C247.312 43.5346 247.813 44.7778 248.232 46.2632L250.17 52.8022H242.468L240.967 46.7476C240.676 45.4559 240.256 44.4549 239.708 43.7444C239.159 43.0017 238.464 42.4851 237.625 42.1945C236.785 41.8715 235.768 41.7101 234.573 41.7101H229.39V52.8022H222.415ZM229.39 36.4789H234.912C237.108 36.4789 238.803 36.0591 239.998 35.2195C241.193 34.3799 241.79 33.0721 241.79 31.2961C241.79 29.5523 241.225 28.2768 240.095 27.4695C238.997 26.63 237.334 26.2102 235.106 26.2102H229.39V36.4789Z" fill="white"/>
<path d="M266.237 53.4803C263.912 53.4803 261.829 53.1251 259.989 52.4147C258.148 51.672 256.566 50.6064 255.242 49.2179C253.95 47.797 252.949 46.0694 252.239 44.0351C251.561 41.9684 251.222 39.6111 251.222 36.9632C251.222 33.1851 251.884 30.069 253.208 27.6148C254.531 25.1284 256.34 23.2716 258.632 22.0446C260.957 20.7852 263.573 20.1555 266.479 20.1555C268.74 20.1555 270.79 20.5269 272.631 21.2696C274.471 21.98 276.038 23.0456 277.329 24.4664C278.653 25.855 279.67 27.5987 280.381 29.6976C281.091 31.7643 281.446 34.1377 281.446 36.8179C281.446 39.5627 281.091 41.9684 280.381 44.0351C279.67 46.1017 278.637 47.8455 277.281 49.2663C275.957 50.6548 274.358 51.7043 272.486 52.4147C270.613 53.1251 268.53 53.4803 266.237 53.4803ZM266.431 47.9101C268.142 47.9101 269.579 47.4903 270.742 46.6507C271.904 45.8111 272.792 44.6002 273.406 43.0179C274.019 41.4356 274.326 39.4981 274.326 37.2054C274.326 34.8158 274.003 32.7815 273.357 31.1023C272.744 29.4232 271.84 28.1477 270.645 27.2758C269.45 26.3716 267.997 25.9195 266.286 25.9195C264.606 25.9195 263.169 26.3555 261.975 27.2273C260.812 28.0669 259.908 29.294 259.262 30.9086C258.649 32.5232 258.342 34.5252 258.342 36.9148C258.342 38.6585 258.519 40.2247 258.875 41.6132C259.262 42.9695 259.795 44.1158 260.473 45.0523C261.151 45.9887 261.991 46.6991 262.992 47.1835C263.993 47.6679 265.139 47.9101 266.431 47.9101Z" fill="white"/>
<path d="M290.317 52.8022V20.8336H297.291V52.8022H290.317ZM280.871 26.6945V20.8336H306.737V26.6945H280.871Z" fill="white"/>
<path d="M321.16 53.4803C318.835 53.4803 316.753 53.1251 314.912 52.4147C313.071 51.672 311.489 50.6064 310.165 49.2179C308.874 47.797 307.873 46.0694 307.162 44.0351C306.484 41.9684 306.145 39.6111 306.145 36.9632C306.145 33.1851 306.807 30.069 308.131 27.6148C309.455 25.1284 311.263 23.2716 313.556 22.0446C315.881 20.7852 318.496 20.1555 321.403 20.1555C323.663 20.1555 325.714 20.5269 327.554 21.2696C329.395 21.98 330.961 23.0456 332.253 24.4664C333.577 25.855 334.594 27.5987 335.304 29.6976C336.015 31.7643 336.37 34.1377 336.37 36.8179C336.37 39.5627 336.015 41.9684 335.304 44.0351C334.594 46.1017 333.56 47.8455 332.204 49.2663C330.88 50.6548 329.282 51.7043 327.409 52.4147C325.536 53.1251 323.453 53.4803 321.16 53.4803ZM321.354 47.9101C323.066 47.9101 324.503 47.4903 325.665 46.6507C326.828 45.8111 327.716 44.6002 328.329 43.0179C328.943 41.4356 329.249 39.4981 329.249 37.2054C329.249 34.8158 328.927 32.7815 328.281 31.1023C327.667 29.4232 326.763 28.1477 325.568 27.2758C324.373 26.3716 322.92 25.9195 321.209 25.9195C319.53 25.9195 318.093 26.3555 316.898 27.2273C315.736 28.0669 314.831 29.294 314.186 30.9086C313.572 32.5232 313.265 34.5252 313.265 36.9148C313.265 38.6585 313.443 40.2247 313.798 41.6132C314.186 42.9695 314.718 44.1158 315.396 45.0523C316.075 45.9887 316.914 46.6991 317.915 47.1835C318.916 47.6679 320.063 47.9101 321.354 47.9101Z" fill="white"/>
<path d="M354.081 53.4803C351.595 53.4803 349.367 53.1413 347.397 52.4632C345.459 51.7527 343.796 50.7194 342.408 49.3632C341.052 47.9746 340.018 46.2632 339.308 44.2288C338.597 42.1945 338.242 39.8372 338.242 37.157C338.242 34.4445 338.597 32.0388 339.308 29.9398C340.051 27.8409 341.1 26.0649 342.456 24.6117C343.845 23.1263 345.475 22.0123 347.348 21.2696C349.221 20.5269 351.304 20.1555 353.597 20.1555C355.373 20.1555 357.02 20.3977 358.537 20.8821C360.055 21.3341 361.363 21.9961 362.461 22.868C363.559 23.7399 364.414 24.8055 365.028 26.0648C365.674 27.3242 366.013 28.745 366.045 30.3273L359.603 32.0226C359.603 30.6664 359.296 29.5362 358.683 28.632C358.101 27.7279 357.326 27.0497 356.358 26.5977C355.421 26.1133 354.42 25.8711 353.355 25.8711C352.418 25.8711 351.482 26.0648 350.545 26.4523C349.641 26.8076 348.801 27.4211 348.026 28.293C347.284 29.1325 346.67 30.2466 346.186 31.6351C345.734 33.0237 345.508 34.719 345.508 36.721C345.508 39.3367 345.879 41.4518 346.622 43.0663C347.397 44.6809 348.446 45.8757 349.77 46.6507C351.094 47.3934 352.58 47.7647 354.226 47.7647C356.003 47.7647 357.375 47.4095 358.344 46.6991C359.345 45.9564 360.055 45.02 360.475 43.8898C360.927 42.7273 361.169 41.5002 361.201 40.2085L367.305 41.2257C367.272 42.9372 367.014 44.5517 366.53 46.0694C366.045 47.5548 365.286 48.8627 364.253 49.9929C363.22 51.0908 361.863 51.9465 360.184 52.56C358.505 53.1736 356.471 53.4803 354.081 53.4803Z" fill="white"/>
<path d="M383.274 53.4803C380.949 53.4803 378.866 53.1251 377.025 52.4147C375.185 51.672 373.602 50.6064 372.278 49.2179C370.987 47.797 369.986 46.0694 369.275 44.0351C368.597 41.9684 368.258 39.6111 368.258 36.9632C368.258 33.1851 368.92 30.069 370.244 27.6148C371.568 25.1284 373.376 23.2716 375.669 22.0446C377.994 20.7852 380.61 20.1555 383.516 20.1555C385.776 20.1555 387.827 20.5269 389.667 21.2696C391.508 21.98 393.074 23.0456 394.366 24.4664C395.69 25.855 396.707 27.5987 397.417 29.6976C398.128 31.7643 398.483 34.1377 398.483 36.8179C398.483 39.5627 398.128 41.9684 397.417 44.0351C396.707 46.1017 395.674 47.8455 394.317 49.2663C392.993 50.6548 391.395 51.7043 389.522 52.4147C387.649 53.1251 385.566 53.4803 383.274 53.4803ZM383.467 47.9101C385.179 47.9101 386.616 47.4903 387.778 46.6507C388.941 45.8111 389.829 44.6002 390.442 43.0179C391.056 41.4356 391.363 39.4981 391.363 37.2054C391.363 34.8158 391.04 32.7815 390.394 31.1023C389.78 29.4232 388.876 28.1477 387.681 27.2758C386.487 26.3716 385.034 25.9195 383.322 25.9195C381.643 25.9195 380.206 26.3555 379.011 27.2273C377.849 28.0669 376.945 29.294 376.299 30.9086C375.685 32.5232 375.378 34.5252 375.378 36.9148C375.378 38.6585 375.556 40.2247 375.911 41.6132C376.299 42.9695 376.832 44.1158 377.51 45.0523C378.188 45.9887 379.027 46.6991 380.028 47.1835C381.029 47.6679 382.176 47.9101 383.467 47.9101Z" fill="white"/>
<path d="M401.471 52.8022V20.8336H408.446V52.8022H401.471ZM402.924 52.8022V46.9413H421.96V52.8022H402.924Z" fill="white"/>
<path d="M430.46 52.6141V47.5664H431.699V52.6141H430.46ZM428.992 48.5912V47.5664H433.183V48.5912H428.992Z" fill="white"/>
<path d="M433.826 52.6141V47.5664H435.669L436.985 51.1992H437.023L438.308 47.5664H440.067V52.6141H438.904L438.973 48.8207H438.889L437.428 52.6141H436.419L434.988 48.8207H434.904L434.973 52.6141H433.826Z" fill="white"/>
<g clip-path="url(#clip0_7743_13100)">
<path d="M63.0171 31.5826C63.0171 48.8145 49.1121 62.777 31.9678 62.777C14.8234 62.777 0.918395 48.8145 0.918395 31.5826C0.918395 14.3506 14.8234 0.388121 31.9678 0.388121C49.1121 0.388121 63.0171 14.3506 63.0171 31.5826Z" fill="url(#paint0_linear_7743_13100)" stroke="white" stroke-width="1.74109"/>
<path d="M29.6789 19.0742L30.5579 21.0013V21.008L29.6772 19.0759L29.6789 19.0742Z" fill="white"/>
<path d="M41.6956 45.4287L37.0718 35.2915L36.0859 33.1261V33.1211L37.0735 35.2915L41.6956 45.4287Z" fill="white"/>
<path d="M29.8345 39.5911V39.7825H20.6288L18.139 45.5637L12.6714 45.5805L22.3282 23.1289L25.1406 29.2928L22.7945 34.7466H27.6254L29.8345 39.5911Z" fill="white"/>
<path d="M26.9285 25.1324L26.9235 25.1407L26.0044 23.123L26.0161 23.1281L26.9285 25.1324Z" fill="white"/>
<path d="M41.7272 45.4943L36.2195 45.5094L26.9286 25.1326L26.0162 23.1284L23.9341 18.5676L29.4435 18.5508L29.6791 19.0728L29.6774 19.0745L30.558 21.0066V20.9999L31.7528 23.6202L36.0858 33.1195V33.1246L37.0717 35.29L41.6954 45.4272L41.7272 45.4943Z" fill="white"/>
<path d="M37.0735 35.2896H37.0718L36.0859 33.1242V33.1191L37.0735 35.2896Z" fill="white"/>
<path d="M51.1687 26.9368C51.1687 31.5429 47.4389 35.2896 42.8537 35.2896H40.7498L38.4538 30.2538H42.8537C44.6751 30.2538 46.1556 28.7665 46.1556 26.9368C46.1556 25.1071 44.6751 23.6198 42.8537 23.6198H35.4293L33.1333 18.584H42.8537C47.4389 18.584 51.1687 22.3307 51.1687 26.9368Z" fill="white"/>
<path d="M29.6789 19.0742L30.5579 21.0013V21.008L29.6772 19.0759L29.6789 19.0742Z" fill="white"/>
<path d="M41.6956 45.4287L37.0718 35.2915L36.0859 33.1261V33.1211L37.0735 35.2915L41.6956 45.4287Z" fill="white"/>
</g>
<defs>
<linearGradient id="paint0_linear_7743_13100" x1="0.325242" y1="6.03062" x2="64.7326" y2="57.5711" gradientUnits="userSpaceOnUse">
<stop stop-color="#802CFD"/>
<stop offset="1" stop-color="#F684FF"/>
</linearGradient>
<clipPath id="clip0_7743_13100">
<rect width="63.8398" height="64.13" fill="white"/>
</clipPath>
</defs>
</svg>
